<svg width="38" height="33" viewBox="0 0 38 33" fill="none" xmlns="http://www.w3.org/2000/svg">
<path d="M37.3711 12C37.3711 22.56 29.3023 32.5 18.8711 32.5C8.45586 32.5 0.871094 22.5787 0.871094 12C0.871094 11.4023 1.04131 11.2591 1.13867 11.2134C1.30241 11.1366 1.6538 11.1283 2.28942 11.3641C3.52124 11.8209 5.30187 12.992 7.41017 14.568C9.19625 15.9031 11.1771 17.4973 13.2018 19.1267C13.5505 19.4073 13.9006 19.689 14.2511 19.9706C16.6314 21.8826 19.0348 23.7891 21.1943 25.3079C23.3358 26.8141 25.3008 27.986 26.7923 28.3702C27.5363 28.5618 28.27 28.586 28.8533 28.235C29.459 27.8706 29.7526 27.1968 29.8222 26.3467C29.8918 25.498 29.7493 24.3843 29.3935 22.9814C29.036 21.5716 28.4547 19.8382 27.6219 17.7382C26.0106 13.6748 23.4449 8.20691 19.6966 1.00165C24.7493 1.02289 29.0842 1.26591 32.2048 2.66752C33.83 3.39749 35.1084 4.43552 35.9869 5.91499C36.8685 7.39975 37.3711 9.3695 37.3711 12Z" stroke="#F6B17A"/>
<path d="M19 1L11 30" stroke="#F6B17A"/>
</svg>
